<svg viewBox="0,0,200,200" xmlns="http://www.w3.org/2000/svg"><g transform="translate(50, 150)"><path d="M 0 0 Q -5 -30 0 -60" fill="none" stroke="#ffffff" stroke-width="3"></path><path d="M 0 -18 Q -10 -28 -15 -23" fill="none" stroke="#ffffff" stroke-width="2"></path><path d="M 0 -18 Q 10 -28 15 -23" fill="none" stroke="#ffffff" stroke-width="2"></path><path d="M 0 -36 Q -10 -46 -15 -41" fill="none" stroke="#ffffff" stroke-width="2"></path><path d="M 0 -36 Q 10 -46 15 -41" fill="none" stroke="#ffffff" stroke-width="2"></path><path d="M 0 -54 Q -10 -64 -15 -59" fill="none" stroke="#ffffff" stroke-width="2"></path><path d="M 0 -54 Q 10 -64 15 -59" fill="none" stroke="#ffffff" stroke-width="2"></path></g><g transform="translate(100, 160)"><path d="M 0 0 Q -5 -35 0 -70" fill="none" stroke="#ffffff" stroke-width="3"></path><path d="M 0 -21 Q -10 -31 -15 -26" fill="none" stroke="#ffffff" stroke-width="2"></path><path d="M 0 -21 Q 10 -31 15 -26" fill="none" stroke="#ffffff" stroke-width="2"></path><path d="M 0 -42 Q -10 -52 -15 -47" fill="none" stroke="#ffffff" stroke-width="2"></path><path d="M 0 -42 Q 10 -52 15 -47" fill="none" stroke="#ffffff" stroke-width="2"></path><path d="M 0 -63 Q -10 -73 -15 -68" fill="none" stroke="#ffffff" stroke-width="2"></path><path d="M 0 -63 Q 10 -73 15 -68" fill="none" stroke="#ffffff" stroke-width="2"></path></g><g transform="translate(150, 155)"><path d="M 0 0 Q -5 -28 0 -56" fill="none" stroke="#ffffff" stroke-width="3"></path><path d="M 0 -16.8 Q -10 -26.8 -15 -21.8" fill="none" stroke="#ffffff" stroke-width="2"></path><path d="M 0 -16.8 Q 10 -26.8 15 -21.8" fill="none" stroke="#ffffff" stroke-width="2"></path><path d="M 0 -33.6 Q -10 -43.6 -15 -38.6" fill="none" stroke="#ffffff" stroke-width="2"></path><path d="M 0 -33.6 Q 10 -43.6 15 -38.6" fill="none" stroke="#ffffff" stroke-width="2"></path><path d="M 0 -50.400000000000006 Q -10 -60.400000000000006 -15 -55.400000000000006" fill="none" stroke="#ffffff" stroke-width="2"></path><path d="M 0 -50.400000000000006 Q 10 -60.400000000000006 15 -55.400000000000006" fill="none" stroke="#ffffff" stroke-width="2"></path></g><g transform="translate(100, 80)"><ellipse cx="0" cy="0" rx="15" ry="8" fill="#ffffff"></ellipse><path d="M 10 0 L 20 -5 L 20 5 Z" fill="#ffffff"></path></g></svg>