<svg viewBox="0,0,200,200" xmlns="http://www.w3.org/2000/svg"><path d="M0,100L0.167,100.05C0.333,100.1,0.667,100.2,1,100.3C1.333,100.4,1.667,100.5,2,100.6C2.333,100.7,2.667,100.8,3,100.899C3.333,100.999,3.667,101.099,4,101.199C4.333,101.298,4.667,101.398,5,101.497C5.333,101.597,5.667,101.696,6,101.796C6.333,101.895,6.667,101.994,7,102.093C7.333,102.192,7.667,102.291,8,102.39C8.333,102.488,8.667,102.587,9,102.685C9.333,102.784,9.667,102.882,10,102.98C10.333,103.078,10.667,103.176,11,103.273C11.333,103.371,11.667,103.468,12,103.565C12.333,103.662,12.667,103.759,13,103.856C13.333,103.953,13.667,104.049,14,104.145C14.333,104.241,14.667,104.337,15,104.433C15.333,104.528,15.667,104.623,16,104.718C16.333,104.813,16.667,104.908,17,105.002C17.333,105.096,17.667,105.19,18,105.284C18.333,105.377,18.667,105.471,19,105.563C19.333,105.656,19.667,105.749,20,105.841C20.333,105.933,20.667,106.025,21,106.116C21.333,106.207,21.667,106.298,22,106.389C22.333,106.479,22.667,106.569,23,106.659C23.333,106.748,23.667,106.838,24,106.926C24.333,107.015,24.667,107.103,25,107.191C25.333,107.279,25.667,107.366,26,107.453C26.333,107.539,26.667,107.626,27,107.712C27.333,107.797,27.667,107.883,28,107.967C28.333,108.052,28.667,108.136,29,108.22C29.333,108.303,29.667,108.387,30,108.469C30.333,108.552,30.667,108.634,31,108.715C31.333,108.796,31.667,108.877,32,108.957C32.333,109.038,32.667,109.117,33,109.196C33.333,109.275,33.667,109.354,34,109.431C34.333,109.509,34.667,109.586,35,109.663C35.333,109.739,35.667,109.815,36,109.89C36.333,109.965,36.667,110.04,37,110.114C37.333,110.187,37.667,110.261,38,110.333C38.333,110.406,38.667,110.477,39,110.548C39.333,110.62,39.667,110.69,40,110.76C40.333,110.829,40.667,110.898,41,110.966C41.333,111.035,41.667,111.102,42,111.169C42.333,111.236,42.667,111.302,43,111.367C43.333,111.432,43.667,111.497,44,111.56C44.333,111.624,44.667,111.687,45,111.749C45.333,111.811,45.667,111.873,46,111.933C46.333,111.994,46.667,112.054,47,112.113C47.333,112.172,47.667,112.23,48,112.287C48.333,112.344,48.667,112.401,49,112.457C49.333,112.512,49.667,112.567,50,112.621C50.333,112.675,50.667,112.728,51,112.781C51.333,112.833,51.667,112.885,52,112.935C52.333,112.986,52.667,113.036,53,113.084C53.333,113.133,53.667,113.181,54,113.228C54.333,113.276,54.667,113.322,55,113.367C55.333,113.413,55.667,113.457,56,113.501C56.333,113.544,56.667,113.587,57,113.629C57.333,113.67,57.667,113.711,58,113.751C58.333,113.791,58.667,113.83,59,113.868C59.333,113.906,59.667,113.943,60,113.98C60.333,114.016,60.667,114.051,61,114.086C61.333,114.12,61.667,114.153,62,114.186C62.333,114.218,62.667,114.25,63,114.28C63.333,114.311,63.667,114.341,64,114.369C64.333,114.398,64.667,114.426,65,114.452C65.333,114.479,65.667,114.505,66,114.53C66.333,114.555,66.667,114.578,67,114.601C67.333,114.624,67.667,114.646,68,114.667C68.333,114.688,68.667,114.708,69,114.727C69.333,114.746,69.667,114.764,70,114.781C70.333,114.798,70.667,114.814,71,114.829C71.333,114.844,71.667,114.858,72,114.871C72.333,114.884,72.667,114.896,73,114.907C73.333,114.918,73.667,114.928,74,114.937C74.333,114.946,74.667,114.954,75,114.961C75.333,114.969,75.667,114.975,76,114.98C76.333,114.985,76.667,114.989,77,114.992C77.333,114.995,77.667,114.997,78,114.998C78.333,114.999,78.667,114.999,79,114.998C79.333,114.997,79.667,114.996,80,114.993C80.333,114.99,80.667,114.986,81,114.981C81.333,114.976,81.667,114.97,82,114.963C82.333,114.956,82.667,114.948,83,114.939C83.333,114.93,83.667,114.921,84,114.91C84.333,114.899,84.667,114.887,85,114.874C85.333,114.861,85.667,114.847,86,114.832C86.333,114.817,86.667,114.802,87,114.785C87.333,114.768,87.667,114.75,88,114.731C88.333,114.713,88.667,114.693,89,114.672C89.333,114.651,89.667,114.629,90,114.607C90.333,114.584,90.667,114.56,91,114.536C91.333,114.511,91.667,114.485,92,114.459C92.333,114.432,92.667,114.405,93,114.376C93.333,114.348,93.667,114.318,94,114.288C94.333,114.257,94.667,114.226,95,114.194C95.333,114.161,95.667,114.128,96,114.094C96.333,114.06,96.667,114.024,97,113.988C97.333,113.952,97.667,113.915,98,113.877C98.333,113.839,98.667,113.8,99,113.761C99.333,113.721,99.667,113.68,100,113.639C100.333,113.597,100.667,113.554,101,113.511C101.333,113.468,101.667,113.423,102,113.378C102.333,113.333,102.667,113.287,103,113.24C103.333,113.193,103.667,113.145,104,113.096C104.333,113.047,104.667,112.998,105,112.947C105.333,112.897,105.667,112.845,106,112.793C106.333,112.741,106.667,112.688,107,112.634C107.333,112.58,107.667,112.525,108,112.47C108.333,112.414,108.667,112.358,109,112.301C109.333,112.244,109.667,112.185,110,112.127C110.333,112.068,110.667,112.008,111,111.948C111.333,111.887,111.667,111.826,112,111.764C112.333,111.702,112.667,111.639,113,111.576C113.333,111.512,113.667,111.448,114,111.382C114.333,111.317,114.667,111.251,115,111.185C115.333,111.118,115.667,111.051,116,110.983C116.333,110.915,116.667,110.846,117,110.776C117.333,110.707,117.667,110.636,118,110.565C118.333,110.494,118.667,110.423,119,110.35C119.333,110.278,119.667,110.205,120,110.131C120.333,110.058,120.667,109.983,121,109.908C121.333,109.833,121.667,109.757,122,109.681C122.333,109.605,122.667,109.527,123,109.45C123.333,109.372,123.667,109.294,124,109.215C124.333,109.136,124.667,109.057,125,108.976C125.333,108.896,125.667,108.816,126,108.734C126.333,108.653,126.667,108.571,127,108.489C127.333,108.406,127.667,108.323,128,108.24C128.333,108.156,128.667,108.072,129,107.987C129.333,107.903,129.667,107.818,130,107.732C130.333,107.646,130.667,107.56,131,107.473C131.333,107.387,131.667,107.3,132,107.212C132.333,107.124,132.667,107.036,133,106.947C133.333,106.859,133.667,106.77,134,106.68C134.333,106.591,134.667,106.501,135,106.41C135.333,106.32,135.667,106.229,136,106.138C136.333,106.047,136.667,105.955,137,105.863C137.333,105.771,137.667,105.678,138,105.586C138.333,105.493,138.667,105.4,139,105.306C139.333,105.213,139.667,105.119,140,105.024C140.333,104.93,140.667,104.836,141,104.741C141.333,104.646,141.667,104.551,142,104.455C142.333,104.36,142.667,104.264,143,104.168C143.333,104.072,143.667,103.976,144,103.879C144.333,103.782,144.667,103.686,145,103.589C145.333,103.491,145.667,103.394,146,103.297C146.333,103.199,146.667,103.101,147,103.003C147.333,102.905,147.667,102.807,148,102.709C148.333,102.61,148.667,102.512,149,102.413C149.333,102.315,149.667,102.216,150,102.117C150.333,102.018,150.667,101.919,151,101.819C151.333,101.72,151.667,101.621,152,101.521C152.333,101.422,152.667,101.322,153,101.222C153.333,101.123,153.667,101.023,154,100.923C154.333,100.823,154.667,100.724,155,100.624C155.333,100.524,155.667,100.424,156,100.324C156.333,100.224,156.667,100.124,157,100.024C157.333,99.924,157.667,99.824,158,99.724C158.333,99.624,158.667,99.524,159,99.424C159.333,99.324,159.667,99.224,160,99.124C160.333,99.025,160.667,98.925,161,98.825C161.333,98.725,161.667,98.626,162,98.526C162.333,98.427,162.667,98.327,163,98.228C163.333,98.129,163.667,98.03,164,97.931C164.333,97.832,164.667,97.733,165,97.634C165.333,97.535,165.667,97.437,166,97.338C166.333,97.24,166.667,97.142,167,97.044C167.333,96.946,167.667,96.848,168,96.75C168.333,96.652,168.667,96.555,169,96.458C169.333,96.361,169.667,96.264,170,96.167C170.333,96.07,170.667,95.974,171,95.878C171.333,95.782,171.667,95.686,172,95.59C172.333,95.495,172.667,95.399,173,95.304C173.333,95.21,173.667,95.115,174,95.021C174.333,94.926,174.667,94.832,175,94.739C175.333,94.645,175.667,94.552,176,94.459C176.333,94.366,176.667,94.273,177,94.181C177.333,94.089,177.667,93.997,178,93.906C178.333,93.814,178.667,93.723,179,93.633C179.333,93.542,179.667,93.452,180,93.363C180.333,93.273,180.667,93.184,181,93.095C181.333,93.006,181.667,92.918,182,92.83C182.333,92.742,182.667,92.655,183,92.568C183.333,92.481,183.667,92.395,184,92.309C184.333,92.223,184.667,92.138,185,92.053C185.333,91.968,185.667,91.884,186,91.8C186.333,91.716,186.667,91.633,187,91.551C187.333,91.468,187.667,91.386,188,91.305C188.333,91.223,188.667,91.142,189,91.062C189.333,90.982,189.667,90.902,190,90.823C190.333,90.744,190.667,90.665,191,90.587C191.333,90.509,191.667,90.432,192,90.356C192.333,90.279,192.667,90.203,193,90.128C193.333,90.053,193.667,89.978,194,89.904C194.333,89.83,194.667,89.757,195,89.684C195.333,89.612,195.667,89.54,196,89.469C196.333,89.397,196.667,89.327,197,89.257C197.333,89.187,197.667,89.118,198,89.05C198.333,88.982,198.667,88.914,199,88.847C199.333,88.78,199.667,88.714,199.833,88.681L200,88.648" fill="none" stroke="#ffffff" stroke-width="3" opacity="1"></path><path d="M0,90.392L0.167,90.417C0.333,90.441,0.667,90.49,1,90.538C1.333,90.586,1.667,90.632,2,90.678C2.333,90.724,2.667,90.768,3,90.812C3.333,90.855,3.667,90.897,4,90.938C4.333,90.979,4.667,91.019,5,91.058C5.333,91.097,5.667,91.135,6,91.171C6.333,91.208,6.667,91.243,7,91.277C7.333,91.311,7.667,91.344,8,91.376C8.333,91.408,8.667,91.438,9,91.468C9.333,91.497,9.667,91.525,10,91.552C10.333,91.579,10.667,91.605,11,91.63C11.333,91.654,11.667,91.678,12,91.7C12.333,91.722,12.667,91.743,13,91.763C13.333,91.783,13.667,91.801,14,91.818C14.333,91.836,14.667,91.852,15,91.867C15.333,91.881,15.667,91.895,16,91.907C16.333,91.92,16.667,91.931,17,91.94C17.333,91.95,17.667,91.959,18,91.966C18.333,91.974,18.667,91.98,19,91.985C19.333,91.989,19.667,91.993,20,91.995C20.333,91.998,20.667,91.999,21,91.999C21.333,91.999,21.667,91.997,22,91.995C22.333,91.992,22.667,91.988,23,91.983C23.333,91.978,23.667,91.971,24,91.964C24.333,91.956,24.667,91.947,25,91.937C25.333,91.927,25.667,91.916,26,91.903C26.333,91.89,26.667,91.877,27,91.861C27.333,91.846,27.667,91.83,28,91.813C28.333,91.795,28.667,91.776,29,91.756C29.333,91.736,29.667,91.715,30,91.693C30.333,91.67,30.667,91.646,31,91.622C31.333,91.597,31.667,91.571,32,91.543C32.333,91.516,32.667,91.488,33,91.458C33.333,91.428,33.667,91.397,34,91.365C34.333,91.333,34.667,91.3,35,91.266C35.333,91.231,35.667,91.196,36,91.159C36.333,91.122,36.667,91.084,37,91.045C37.333,91.006,37.667,90.966,38,90.924C38.333,90.883,38.667,90.841,39,90.797C39.333,90.753,39.667,90.709,40,90.663C40.333,90.617,40.667,90.57,41,90.522C41.333,90.474,41.667,90.425,42,90.374C42.333,90.324,42.667,90.273,43,90.22C43.333,90.168,43.667,90.115,44,90.06C44.333,90.006,44.667,89.95,45,89.893C45.333,89.837,45.667,89.779,46,89.721C46.333,89.662,46.667,89.602,47,89.542C47.333,89.481,47.667,89.42,48,89.357C48.333,89.294,48.667,89.231,49,89.166C49.333,89.102,49.667,89.036,50,88.97C50.333,88.903,50.667,88.836,51,88.768C51.333,88.7,51.667,88.63,52,88.56C52.333,88.49,52.667,88.419,53,88.348C53.333,88.276,53.667,88.203,54,88.129C54.333,88.056,54.667,87.982,55,87.906C55.333,87.831,55.667,87.755,56,87.678C56.333,87.601,56.667,87.524,57,87.445C57.333,87.367,57.667,87.288,58,87.208C58.333,87.128,58.667,87.047,59,86.966C59.333,86.884,59.667,86.802,60,86.719C60.333,86.637,60.667,86.553,61,86.469C61.333,86.385,61.667,86.3,62,86.214C62.333,86.129,62.667,86.042,63,85.956C63.333,85.869,63.667,85.781,64,85.693C64.333,85.605,64.667,85.517,65,85.428C65.333,85.338,65.667,85.249,66,85.158C66.333,85.068,66.667,84.977,67,84.886C67.333,84.795,67.667,84.703,68,84.611C68.333,84.518,68.667,84.425,69,84.332C69.333,84.239,69.667,84.145,70,84.051C70.333,83.957,70.667,83.862,71,83.768C71.333,83.673,71.667,83.577,72,83.482C72.333,83.386,72.667,83.29,73,83.193C73.333,83.097,73.667,83,74,82.903C74.333,82.806,74.667,82.709,75,82.611C75.333,82.514,75.667,82.416,76,82.318C76.333,82.22,76.667,82.121,77,82.023C77.333,81.924,77.667,81.825,78,81.727C78.333,81.628,78.667,81.528,79,81.429C79.333,81.33,79.667,81.23,80,81.131C80.333,81.031,80.667,80.932,81,80.832C81.333,80.732,81.667,80.632,82,80.533C82.333,80.433,82.667,80.333,83,80.233C83.333,80.133,83.667,80.033,84,79.933C84.333,79.833,84.667,79.733,85,79.633C85.333,79.533,85.667,79.433,86,79.333C86.333,79.233,86.667,79.134,87,79.034C87.333,78.934,87.667,78.835,88,78.735C88.333,78.636,88.667,78.536,89,78.437C89.333,78.338,89.667,78.239,90,78.14C90.333,78.042,90.667,77.943,91,77.845C91.333,77.746,91.667,77.648,92,77.55C92.333,77.452,92.667,77.355,93,77.257C93.333,77.16,93.667,77.063,94,76.966C94.333,76.87,94.667,76.773,95,76.677C95.333,76.581,95.667,76.485,96,76.39C96.333,76.295,96.667,76.2,97,76.105C97.333,76.01,97.667,75.916,98,75.823C98.333,75.729,98.667,75.636,99,75.543C99.333,75.45,99.667,75.357,100,75.266C100.333,75.174,100.667,75.082,101,74.991C101.333,74.901,101.667,74.81,102,74.72C102.333,74.631,102.667,74.541,103,74.453C103.333,74.364,103.667,74.276,104,74.189C104.333,74.101,104.667,74.014,105,73.928C105.333,73.842,105.667,73.756,106,73.671C106.333,73.586,106.667,73.502,107,73.418C107.333,73.335,107.667,73.252,108,73.17C108.333,73.087,108.667,73.006,109,72.925C109.333,72.844,109.667,72.764,110,72.685C110.333,72.606,110.667,72.527,111,72.45C111.333,72.372,111.667,72.295,112,72.219C112.333,72.143,112.667,72.067,113,71.993C113.333,71.919,113.667,71.845,114,71.772C114.333,71.699,114.667,71.627,115,71.556C115.333,71.485,115.667,71.415,116,71.346C116.333,71.277,116.667,71.208,117,71.141C117.333,71.073,117.667,71.007,118,70.941C118.333,70.876,118.667,70.811,119,70.747C119.333,70.684,119.667,70.621,120,70.559C120.333,70.498,120.667,70.437,121,70.377C121.333,70.317,121.667,70.259,122,70.201C122.333,70.143,122.667,70.087,123,70.031C123.333,69.975,123.667,69.921,124,69.867C124.333,69.814,124.667,69.761,125,69.71C125.333,69.658,125.667,69.608,126,69.559C126.333,69.509,126.667,69.461,127,69.414C127.333,69.367,127.667,69.321,128,69.276C128.333,69.231,128.667,69.188,129,69.145C129.333,69.102,129.667,69.061,130,69.021C130.333,68.98,130.667,68.941,131,68.903C131.333,68.865,131.667,68.828,132,68.793C132.333,68.757,132.667,68.722,133,68.689C133.333,68.656,133.667,68.623,134,68.592C134.333,68.561,134.667,68.532,135,68.503C135.333,68.474,135.667,68.447,136,68.421C136.333,68.394,136.667,68.369,137,68.346C137.333,68.322,137.667,68.299,138,68.278C138.333,68.257,138.667,68.237,139,68.218C139.333,68.199,139.667,68.181,140,68.165C140.333,68.148,140.667,68.133,141,68.119C141.333,68.105,141.667,68.092,142,68.081C142.333,68.069,142.667,68.059,143,68.05C143.333,68.041,143.667,68.033,144,68.027C144.333,68.02,144.667,68.015,145,68.011C145.333,68.007,145.667,68.004,146,68.003C146.333,68.001,146.667,68.001,147,68.002C147.333,68.003,147.667,68.005,148,68.009C148.333,68.012,148.667,68.017,149,68.023C149.333,68.029,149.667,68.036,150,68.044C150.333,68.053,150.667,68.063,151,68.074C151.333,68.084,151.667,68.097,152,68.11C152.333,68.124,152.667,68.138,153,68.154C153.333,68.17,153.667,68.187,154,68.206C154.333,68.224,154.667,68.244,155,68.264C155.333,68.285,155.667,68.307,156,68.331C156.333,68.354,156.667,68.378,157,68.404C157.333,68.43,157.667,68.457,158,68.485C158.333,68.513,158.667,68.542,159,68.572C159.333,68.603,159.667,68.635,160,68.668C160.333,68.7,160.667,68.734,161,68.77C161.333,68.805,161.667,68.841,162,68.879C162.333,68.916,162.667,68.955,163,68.995C163.333,69.035,163.667,69.076,164,69.118C164.333,69.16,164.667,69.203,165,69.247C165.333,69.292,165.667,69.337,166,69.384C166.333,69.431,166.667,69.478,167,69.527C167.333,69.576,167.667,69.626,168,69.677C168.333,69.728,168.667,69.78,169,69.833C169.333,69.886,169.667,69.94,170,69.995C170.333,70.05,170.667,70.107,171,70.164C171.333,70.221,171.667,70.279,172,70.339C172.333,70.398,172.667,70.458,173,70.52C173.333,70.581,173.667,70.643,174,70.706C174.333,70.77,174.667,70.834,175,70.899C175.333,70.964,175.667,71.03,176,71.097C176.333,71.164,176.667,71.232,177,71.301C177.333,71.37,177.667,71.44,178,71.511C178.333,71.581,178.667,71.653,179,71.725C179.333,71.798,179.667,71.871,180,71.945C180.333,72.019,180.667,72.094,181,72.17C181.333,72.246,181.667,72.322,182,72.4C182.333,72.477,182.667,72.555,183,72.634C183.333,72.713,183.667,72.793,184,72.873C184.333,72.954,184.667,73.035,185,73.117C185.333,73.198,185.667,73.281,186,73.364C186.333,73.448,186.667,73.532,187,73.616C187.333,73.701,187.667,73.786,188,73.872C188.333,73.958,188.667,74.045,189,74.132C189.333,74.219,189.667,74.307,190,74.396C190.333,74.484,190.667,74.573,191,74.663C191.333,74.752,191.667,74.842,192,74.933C192.333,75.023,192.667,75.115,193,75.206C193.333,75.298,193.667,75.39,194,75.483C194.333,75.575,194.667,75.669,195,75.762C195.333,75.856,195.667,75.95,196,76.044C196.333,76.138,196.667,76.233,197,76.328C197.333,76.424,197.667,76.519,198,76.615C198.333,76.711,198.667,76.807,199,76.904C199.333,77.001,199.667,77.097,199.833,77.146L200,77.194" fill="none" stroke="#ffffff" stroke-width="3" opacity="0.8"></path><path d="M0,67.794L0.167,67.771C0.333,67.748,0.667,67.702,1,67.655C1.333,67.607,1.667,67.559,2,67.509C2.333,67.46,2.667,67.409,3,67.357C3.333,67.305,3.667,67.252,4,67.198C4.333,67.144,4.667,67.089,5,67.033C5.333,66.977,5.667,66.92,6,66.862C6.333,66.803,6.667,66.744,7,66.684C7.333,66.624,7.667,66.562,8,66.5C8.333,66.438,8.667,66.375,9,66.311C9.333,66.246,9.667,66.181,10,66.115C10.333,66.049,10.667,65.982,11,65.915C11.333,65.847,11.667,65.778,12,65.709C12.333,65.639,12.667,65.569,13,65.497C13.333,65.426,13.667,65.354,14,65.281C14.333,65.208,14.667,65.135,15,65.06C15.333,64.986,15.667,64.911,16,64.835C16.333,64.759,16.667,64.682,17,64.605C17.333,64.528,17.667,64.45,18,64.371C18.333,64.292,18.667,64.213,19,64.133C19.333,64.053,19.667,63.973,20,63.891C20.333,63.81,20.667,63.729,21,63.646C21.333,63.564,21.667,63.481,22,63.398C22.333,63.315,22.667,63.231,23,63.146C23.333,63.062,23.667,62.977,24,62.892C24.333,62.807,24.667,62.721,25,62.635C25.333,62.549,25.667,62.463,26,62.376C26.333,62.289,26.667,62.202,27,62.114C27.333,62.027,27.667,61.939,28,61.851C28.333,61.763,28.667,61.675,29,61.586C29.333,61.498,29.667,61.409,30,61.32C30.333,61.231,30.667,61.142,31,61.052C31.333,60.963,31.667,60.873,32,60.784C32.333,60.694,32.667,60.604,33,60.514C33.333,60.425,33.667,60.335,34,60.245C34.333,60.155,34.667,60.065,35,59.975C35.333,59.885,35.667,59.795,36,59.705C36.333,59.615,36.667,59.525,37,59.435C37.333,59.345,37.667,59.256,38,59.166C38.333,59.077,38.667,58.987,39,58.898C39.333,58.808,39.667,58.719,40,58.63C40.333,58.541,40.667,58.453,41,58.364C41.333,58.276,41.667,58.187,42,58.099C42.333,58.012,42.667,57.924,43,57.837C43.333,57.749,43.667,57.662,44,57.575C44.333,57.489,44.667,57.403,45,57.317C45.333,57.231,45.667,57.145,46,57.06C46.333,56.975,46.667,56.891,47,56.806C47.333,56.722,47.667,56.639,48,56.556C48.333,56.472,48.667,56.39,49,56.308C49.333,56.226,49.667,56.144,50,56.063C50.333,55.982,50.667,55.902,51,55.822C51.333,55.743,51.667,55.663,52,55.585C52.333,55.507,52.667,55.429,53,55.352C53.333,55.275,53.667,55.198,54,55.123C54.333,55.047,54.667,54.972,55,54.898C55.333,54.824,55.667,54.751,56,54.678C56.333,54.606,56.667,54.534,57,54.463C57.333,54.392,57.667,54.322,58,54.253C58.333,54.183,58.667,54.115,59,54.047C59.333,53.98,59.667,53.913,60,53.848C60.333,53.782,60.667,53.717,61,53.654C61.333,53.59,61.667,53.527,62,53.465C62.333,53.403,62.667,53.342,63,53.282C63.333,53.223,63.667,53.164,64,53.106C64.333,53.048,64.667,52.991,65,52.935C65.333,52.88,65.667,52.825,66,52.771C66.333,52.718,66.667,52.665,67,52.614C67.333,52.563,67.667,52.512,68,52.463C68.333,52.414,68.667,52.366,69,52.319C69.333,52.272,69.667,52.226,70,52.182C70.333,52.137,70.667,52.094,71,52.052C71.333,52.01,71.667,51.969,72,51.929C72.333,51.889,72.667,51.85,73,51.813C73.333,51.776,73.667,51.74,74,51.705C74.333,51.67,74.667,51.636,75,51.604C75.333,51.571,75.667,51.54,76,51.51C76.333,51.481,76.667,51.452,77,51.425C77.333,51.398,77.667,51.372,78,51.347C78.333,51.322,78.667,51.299,79,51.277C79.333,51.255,79.667,51.234,80,51.214C80.333,51.195,80.667,51.177,81,51.16C81.333,51.143,81.667,51.128,82,51.113C82.333,51.099,82.667,51.086,83,51.075C83.333,51.063,83.667,51.053,84,51.045C84.333,51.036,84.667,51.028,85,51.022C85.333,51.016,85.667,51.011,86,51.008C86.333,51.004,86.667,51.002,87,51.002C87.333,51.001,87.667,51.002,88,51.004C88.333,51.006,88.667,51.009,89,51.014C89.333,51.018,89.667,51.024,90,51.032C90.333,51.039,90.667,51.048,91,51.058C91.333,51.068,91.667,51.079,92,51.092C92.333,51.105,92.667,51.119,93,51.134C93.333,51.15,93.667,51.166,94,51.184C94.333,51.202,94.667,51.222,95,51.242C95.333,51.263,95.667,51.285,96,51.308C96.333,51.332,96.667,51.356,97,51.382C97.333,51.408,97.667,51.435,98,51.464C98.333,51.492,98.667,51.522,99,51.553C99.333,51.584,99.667,51.616,100,51.65C100.333,51.684,100.667,51.718,101,51.754C101.333,51.79,101.667,51.828,102,51.866C102.333,51.905,102.667,51.944,103,51.985C103.333,52.026,103.667,52.068,104,52.112C104.333,52.155,104.667,52.199,105,52.245C105.333,52.291,105.667,52.337,106,52.385C106.333,52.433,106.667,52.482,107,52.533C107.333,52.583,107.667,52.634,108,52.687C108.333,52.739,108.667,52.793,109,52.847C109.333,52.902,109.667,52.958,110,53.014C110.333,53.071,110.667,53.129,111,53.188C111.333,53.246,111.667,53.306,112,53.367C112.333,53.428,112.667,53.49,113,53.552C113.333,53.615,113.667,53.679,114,53.744C114.333,53.808,114.667,53.874,115,53.94C115.333,54.007,115.667,54.074,116,54.143C116.333,54.211,116.667,54.28,117,54.35C117.333,54.42,117.667,54.491,118,54.563C118.333,54.635,118.667,54.707,119,54.78C119.333,54.854,119.667,54.928,120,55.003C120.333,55.077,120.667,55.153,121,55.229C121.333,55.306,121.667,55.383,122,55.46C122.333,55.538,122.667,55.616,123,55.695C123.333,55.774,123.667,55.854,124,55.934C124.333,56.015,124.667,56.096,125,56.177C125.333,56.258,125.667,56.34,126,56.423C126.333,56.506,126.667,56.589,127,56.672C127.333,56.756,127.667,56.84,128,56.925C128.333,57.009,128.667,57.094,129,57.18C129.333,57.265,129.667,57.351,130,57.437C130.333,57.524,130.667,57.61,131,57.697C131.333,57.784,131.667,57.871,132,57.959C132.333,58.047,132.667,58.135,133,58.223C133.333,58.311,133.667,58.4,134,58.488C134.333,58.577,134.667,58.666,135,58.755C135.333,58.844,135.667,58.934,136,59.023C136.333,59.112,136.667,59.202,137,59.292C137.333,59.381,137.667,59.471,138,59.561C138.333,59.651,138.667,59.741,139,59.831C139.333,59.921,139.667,60.011,140,60.101C140.333,60.191,140.667,60.281,141,60.371C141.333,60.461,141.667,60.55,142,60.64C142.333,60.73,142.667,60.82,143,60.909C143.333,60.999,143.667,61.088,144,61.177C144.333,61.267,144.667,61.356,145,61.444C145.333,61.533,145.667,61.622,146,61.71C146.333,61.799,146.667,61.887,147,61.974C147.333,62.062,147.667,62.15,148,62.237C148.333,62.324,148.667,62.411,149,62.497C149.333,62.584,149.667,62.67,150,62.755C150.333,62.841,150.667,62.926,151,63.011C151.333,63.096,151.667,63.18,152,63.264C152.333,63.348,152.667,63.431,153,63.514C153.333,63.597,153.667,63.679,154,63.761C154.333,63.843,154.667,63.924,155,64.005C155.333,64.085,155.667,64.165,156,64.245C156.333,64.324,156.667,64.403,157,64.481C157.333,64.559,157.667,64.636,158,64.713C158.333,64.789,158.667,64.865,159,64.941C159.333,65.016,159.667,65.09,160,65.164C160.333,65.238,160.667,65.311,161,65.383C161.333,65.455,161.667,65.526,162,65.597C162.333,65.667,162.667,65.737,163,65.805C163.333,65.874,163.667,65.942,164,66.009C164.333,66.076,164.667,66.142,165,66.207C165.333,66.272,165.667,66.337,166,66.4C166.333,66.463,166.667,66.525,167,66.587C167.333,66.648,167.667,66.708,168,66.768C168.333,66.827,168.667,66.885,169,66.943C169.333,67,169.667,67.056,170,67.111C170.333,67.166,170.667,67.22,171,67.273C171.333,67.326,171.667,67.378,172,67.429C172.333,67.48,172.667,67.529,173,67.578C173.333,67.627,173.667,67.674,174,67.72C174.333,67.766,174.667,67.811,175,67.855C175.333,67.899,175.667,67.942,176,67.983C176.333,68.025,176.667,68.065,177,68.104C177.333,68.144,177.667,68.181,178,68.218C178.333,68.255,178.667,68.29,179,68.324C179.333,68.359,179.667,68.391,180,68.423C180.333,68.455,180.667,68.485,181,68.514C181.333,68.543,181.667,68.571,182,68.598C182.333,68.624,182.667,68.65,183,68.674C183.333,68.698,183.667,68.72,184,68.742C184.333,68.763,184.667,68.783,185,68.802C185.333,68.82,185.667,68.838,186,68.854C186.333,68.87,186.667,68.885,187,68.898C187.333,68.912,187.667,68.924,188,68.934C188.333,68.945,188.667,68.955,189,68.963C189.333,68.971,189.667,68.977,190,68.983C190.333,68.988,190.667,68.992,191,68.995C191.333,68.997,191.667,68.999,192,68.999C192.333,68.999,192.667,68.997,193,68.994C193.333,68.992,193.667,68.988,194,68.982C194.333,68.977,194.667,68.97,195,68.962C195.333,68.954,195.667,68.944,196,68.933C196.333,68.923,196.667,68.911,197,68.897C197.333,68.884,197.667,68.869,198,68.853C198.333,68.836,198.667,68.819,199,68.8C199.333,68.781,199.667,68.761,199.833,68.751L200,68.741" fill="none" stroke="#ffffff" stroke-width="3" opacity="0.6"></path><circle cx="112.13889087715688" cy="143.53024425298563" r="5.023191204653198" fill="#ffffff" opacity="0.4"></circle><circle cx="59.25367710977649" cy="141.36531857083617" r="5.499677580028723" fill="#ffffff" opacity="0.4"></circle><circle cx="38.91310796469996" cy="123.81012081990835" r="6.7565658994935465" fill="#ffffff" opacity="0.4"></circle><circle cx="47.60817901253267" cy="148.34157654640794" r="3.320435931698888" fill="#ffffff" opacity="0.4"></circle><circle cx="131.1127417036374" cy="125.44689952470014" r="6.317626132681938" fill="#ffffff" opacity="0.4"></circle></svg>