<svg viewBox="0,0,200,200" xmlns="http://www.w3.org/2000/svg"><circle cx="100" cy="100" r="70" fill="none" stroke="#ffffff" stroke-width="3"></circle><line x1="164.46952350278906" y1="100" x2="32.73242339813585" y2="100.00000000000001" stroke="#ffffff" stroke-width="1" opacity="0.3"></line><line x1="164.46952350278906" y1="100" x2="50.89712020992196" y2="50.89712020992198" stroke="#ffffff" stroke-width="1" opacity="0.3"></line><line x1="164.46952350278906" y1="100" x2="144.91395863587104" y2="55.08604136412895" stroke="#ffffff" stroke-width="1" opacity="0.3"></line><line x1="140.25952828280325" y1="140.25952828280322" x2="59.86622314713012" y2="140.1337768528699" stroke="#ffffff" stroke-width="1" opacity="0.3"></line><line x1="140.25952828280325" y1="140.25952828280322" x2="50.89712020992196" y2="50.89712020992198" stroke="#ffffff" stroke-width="1" opacity="0.3"></line><line x1="140.25952828280325" y1="140.25952828280322" x2="99.99999999999999" y2="33.08776380817608" stroke="#ffffff" stroke-width="1" opacity="0.3"></line><line x1="140.25952828280325" y1="140.25952828280322" x2="144.91395863587104" y2="55.08604136412895" stroke="#ffffff" stroke-width="1" opacity="0.3"></line><line x1="100" y1="150.38040136153677" x2="59.86622314713012" y2="140.1337768528699" stroke="#ffffff" stroke-width="1" opacity="0.3"></line><line x1="100" y1="150.38040136153677" x2="99.99999999999999" y2="33.08776380817608" stroke="#ffffff" stroke-width="1" opacity="0.3"></line><line x1="100" y1="150.38040136153677" x2="144.91395863587104" y2="55.08604136412895" stroke="#ffffff" stroke-width="1" opacity="0.3"></line><line x1="59.86622314713012" y1="140.1337768528699" x2="99.99999999999999" y2="33.08776380817608" stroke="#ffffff" stroke-width="1" opacity="0.3"></line><line x1="59.86622314713012" y1="140.1337768528699" x2="144.91395863587104" y2="55.08604136412895" stroke="#ffffff" stroke-width="1" opacity="0.3"></line><line x1="32.73242339813585" y1="100.00000000000001" x2="99.99999999999999" y2="33.08776380817608" stroke="#ffffff" stroke-width="1" opacity="0.3"></line><line x1="50.89712020992196" y1="50.89712020992198" x2="144.91395863587104" y2="55.08604136412895" stroke="#ffffff" stroke-width="1" opacity="0.3"></line><circle cx="164.46952350278906" cy="100" r="4" fill="#ffffff"></circle><circle cx="140.25952828280325" cy="140.25952828280322" r="4" fill="#ffffff"></circle><circle cx="100" cy="150.38040136153677" r="4" fill="#ffffff"></circle><circle cx="59.86622314713012" cy="140.1337768528699" r="4" fill="#ffffff"></circle><circle cx="32.73242339813585" cy="100.00000000000001" r="4" fill="#ffffff"></circle><circle cx="50.89712020992196" cy="50.89712020992198" r="4" fill="#ffffff"></circle><circle cx="99.99999999999999" cy="33.08776380817608" r="4" fill="#ffffff"></circle><circle cx="144.91395863587104" cy="55.08604136412895" r="4" fill="#ffffff"></circle></svg>