<svg viewBox="0,0,200,200" xmlns="http://www.w3.org/2000/svg"><line x1="50" y1="80" x2="100" y2="60" stroke="#ffffff" stroke-width="1" opacity="0.3"></line><line x1="50" y1="80" x2="150" y2="85" stroke="#ffffff" stroke-width="1" opacity="0.3"></line><line x1="50" y1="80" x2="80" y2="120" stroke="#ffffff" stroke-width="1" opacity="0.3"></line><line x1="50" y1="80" x2="130" y2="110" stroke="#ffffff" stroke-width="1" opacity="0.3"></line><line x1="100" y1="60" x2="150" y2="85" stroke="#ffffff" stroke-width="1" opacity="0.3"></line><line x1="100" y1="60" x2="80" y2="120" stroke="#ffffff" stroke-width="1" opacity="0.3"></line><line x1="100" y1="60" x2="130" y2="110" stroke="#ffffff" stroke-width="1" opacity="0.3"></line><line x1="150" y1="85" x2="80" y2="120" stroke="#ffffff" stroke-width="1" opacity="0.3"></line><line x1="150" y1="85" x2="130" y2="110" stroke="#ffffff" stroke-width="1" opacity="0.3"></line><line x1="80" y1="120" x2="130" y2="110" stroke="#ffffff" stroke-width="1" opacity="0.3"></line><circle cx="50" cy="80" r="15" fill="#ffffff" opacity="0.8"></circle><circle cx="100" cy="60" r="20" fill="#ffffff" opacity="0.8"></circle><circle cx="150" cy="85" r="18" fill="#ffffff" opacity="0.8"></circle><circle cx="80" cy="120" r="12" fill="#ffffff" opacity="0.8"></circle><circle cx="130" cy="110" r="16" fill="#ffffff" opacity="0.8"></circle><path d="M0,-18.877L4.238,-5.833L17.953,-5.833L6.857,2.228L11.095,15.271L0,7.21L-11.095,15.271L-6.857,2.228L-17.953,-5.833L-4.238,-5.833Z" transform="translate(100, 90)" fill="#ffffff"></path></svg>